PathFileType	4	(X/Y/Z)	Walk1.trc
DataRate	CameraRate	NumFrames	NumMarkers	Units	OrigDataRate	OrigDataStartFrame	OrigNumFrames
200.000000	200.000000	9	59	mm	200.000000	307	593
Frame#	Times		CLAV		STRN		LASI		RASI		RACR1		RFA1		RWRU		LACR1		LUA1		LFA1		LCAR		RTH2		LTH3		LTH2		LLFC		LTB3		LTB4		LToe		LTB1		RUA1		RElbow		RTH4		LTH4		LMMAL		LMT1		LTB2		LMT5		LTH1		RTH1		RCAR		LLMAL		RBack		C7		RFHD		RTH3		LFHD		RPSI		RWRR		T10		LPSI		RBHD		RLFC		LElbow		RTB1		LWRU		RElbowM		RTB4		RTB2		RToe		LBHD		LWRR		RTB3		RMT1		LElbowM		RCAL		RMT5		RLMAL		RMMAL		LCAL
			X1	Y1	Z1	X2	Y2	Z2	X3	Y3	Z3	X4	Y4	Z4	X5	Y5	Z5	X6	Y6	Z6	X7	Y7	Z7	X8	Y8	Z8	X9	Y9	Z9	X10	Y10	Z10	X11	Y11	Z11	X12	Y12	Z12	X13	Y13	Z13	X14	Y14	Z14	X15	Y15	Z15	X16	Y16	Z16	X17	Y17	Z17	X18	Y18	Z18	X19	Y19	Z19	X20	Y20	Z20	X21	Y21	Z21	X22	Y22	Z22	X23	Y23	Z23	X24	Y24	Z24	X25	Y25	Z25	X26	Y26	Z26	X27	Y27	Z27	X28	Y28	Z28	X29	Y29	Z29	X30	Y30	Z30	X31	Y31	Z31	X32	Y32	Z32	X33	Y33	Z33	X34	Y34	Z34	X35	Y35	Z35	X36	Y36	Z36	X37	Y37	Z37	X38	Y38	Z38	X39	Y39	Z39	X40	Y40	Z40	X41	Y41	Z41	X42	Y42	Z42	X43	Y43	Z43	X44	Y44	Z44	X45	Y45	Z45	X46	Y46	Z46	X47	Y47	Z47	X48	Y48	Z48	X49	Y49	Z49	X50	Y50	Z50	X51	Y51	Z51	X52	Y52	Z52	X53	Y53	Z53	X54	Y54	Z54	X55	Y55	Z55	X56	Y56	Z56	X57	Y57	Z57	X58	Y58	Z58	X59	Y59	Z59

307	1.535	-525.24	1340.2	-29.761	-449.55	1117.5	-18.005	-494.18	939.77	-136.81	-506.72	941.77	122.06	-578.06	1356.9	142.24	-527.16	909.59	237.1	-535.45	796.89	247.09	-584.62	1350.4	-199.85	-626.2	1142.4	-236.72	-637.32	899.96	-253.79	-658.41	737.91	-256.63	-513.31	657.36	123.62	-523.92	564.65	-139.44	-479.27	670	-129.66	-508.98	456.8	-124.21	-500.86	174.69	-35.805	-489.26	265.83	-42.129	-351.99	30.45	-64.617	-480.18	360.99	-41.156	-594.35	1147.5	209.17	-611.65	1040.4	234.49	-579.91	643.25	146.45	-547.66	648.34	-159.83	-530.98	75.165	0.76712	-397.25	38.43	-36.891	-510.63	267.51	-110.85	-436	23.179	-114.99	-570.31	740.67	-181.13	-589.78	736.41	162.24	-480.85	768.56	244.17	-544.89	61.321	-79.826	-695.98	1315.8	71.986	-649.19	1419.8	-26.986	-466.19	1575.9	18.648	-568.56	550.16	134.55	-468.56	1574.4	-54.57	-719.26	975.61	48.098	-486	814.59	195.2	-686.39	1135.1	-18.123	-715.12	975.95	-67.59	-641.77	1554.6	43.907	-572.62	457.92	120.46	-662.58	1027.7	-239.42	-625.92	348.91	54.216	-694.76	790.9	-263.46	-626.02	1017.3	152.79	-706.02	301.76	53.01	-713.9	318.81	122.32	-830.04	47.06	74.343	-638.87	1562.5	-82.779	-642.99	780.1	-214.78	-784.8	253.35	52.198	-843.06	79.148	44.94	-679.1	1019.8	-170.37	-943.73	245.25	47.219	-893.59	92.44	110.36	-899.26	224.78	98.048	-867.38	217.59	23.481	-594.9	29.071	-26.905
308	1.54	-519.75	1341	-30.02	-444.17	1118.2	-18.227	-489.52	940.51	-137.77	-501.63	942.77	122.24	-572.66	1357.7	142	-524.61	909.73	237.09	-534.06	797.14	247.38	-578.97	1351.3	-200.09	-619.3	1143.1	-237.22	-628.5	900.54	-254.01	-648.25	738.34	-256.67	-505.59	659.41	123.99	-520.99	564.69	-139.66	-475.61	669.71	-129.96	-506.81	456.67	-124.39	-500.27	174.54	-35.892	-488.22	265.61	-42.231	-351.95	30.405	-64.743	-478.63	360.73	-41.31	-589.86	1148.3	208.83	-607.81	1041.3	234.02	-572.19	644.66	146.55	-544.19	648.54	-160.03	-530.95	75.187	0.7249	-397.29	38.459	-36.96	-509.43	267.34	-111.02	-436.03	23.143	-115.06	-566.21	741.01	-181.32	-583.08	737.69	162.2	-479.85	768.11	244.44	-544.89	61.339	-79.867	-690.55	1316.8	71.565	-643.62	1420.7	-27.302	-460.5	1576.7	18.444	-559.8	551.66	134.62	-462.88	1575.1	-54.759	-713.79	976.58	47.959	-484.41	814.18	195.43	-681.02	1136	-18.553	-709.94	976.77	-67.711	-636.08	1555.5	43.681	-562.3	459.76	120.44	-654.95	1028.2	-240.23	-614.82	350.6	53.987	-684.91	791.05	-264.15	-621.97	1018.3	152.22	-694.75	303.14	52.608	-702.79	320.13	121.89	-815.69	48.605	75.463	-633.18	1563.4	-83.002	-633.68	780.77	-214.75	-773.32	254.46	51.62	-829.13	80.43	45.697	-672.33	1020.2	-171.42	-932.46	245	46.148	-879.92	93.808	110.82	-887.72	225.43	97.245	-855.62	218.24	22.716	-594.9	29.111	-26.896
309	1.545	-514.3	1341.8	-30.271	-438.81	1118.9	-18.449	-484.88	941.22	-138.78	-496.56	943.77	122.48	-567.29	1358.5	141.76	-522.07	909.89	237.09	-532.68	797.41	247.68	-573.37	1352.2	-200.31	-612.41	1143.8	-237.71	-619.64	901.15	-254.21	-637.97	738.81	-256.7	-497.92	661.51	124.4	-518.1	564.71	-139.85	-471.97	669.39	-130.24	-504.68	456.54	-124.55	-499.69	174.4	-35.965	-487.18	265.39	-42.313	-351.89	30.362	-64.853	-477.11	360.47	-41.436	-585.39	1149.1	208.5	-603.98	1042.2	233.57	-564.53	646.1	146.67	-540.74	648.71	-160.2	-530.9	75.206	0.69185	-397.32	38.486	-37.029	-508.26	267.18	-111.16	-436.07	23.105	-115.12	-562.14	741.33	-181.48	-576.43	738.99	162.18	-478.87	767.69	244.71	-544.88	61.363	-79.896	-685.15	1317.7	71.153	-638.08	1421.6	-27.598	-454.82	1577.3	18.257	-551.09	553.2	134.69	-457.2	1575.9	-54.931	-708.31	977.55	47.845	-482.84	813.8	195.66	-675.67	1136.9	-18.985	-704.76	977.58	-67.808	-630.4	1556.3	43.487	-552.08	461.64	120.4	-647.32	1028.6	-241.07	-603.69	352.26	53.754	-674.95	791.2	-264.84	-617.93	1019.2	151.68	-683.42	304.41	52.2	-691.65	321.33	121.45	-801.01	49.98	76.644	-627.5	1564.3	-83.194	-624.27	781.46	-214.72	-761.72	255.35	51.027	-814.89	81.473	46.485	-665.58	1020.7	-172.52	-921.04	244.35	45.02	-866	94.903	111.31	-876.01	225.75	96.411	-843.67	218.57	21.924	-594.9	29.159	-26.878
310	1.55	-508.86	1342.6	-30.516	-433.48	1119.6	-18.673	-480.24	941.9	-139.82	-491.5	944.75	122.77	-561.94	1359.3	141.54	-519.55	910.05	237.08	-531.32	797.71	247.98	-567.81	1353.2	-200.52	-605.56	1144.5	-238.2	-610.72	901.78	-254.4	-627.57	739.32	-256.73	-490.3	663.63	124.85	-515.25	564.72	-140.01	-468.37	669.05	-130.52	-502.58	456.41	-124.67	-499.1	174.25	-36.024	-486.14	265.17	-42.375	-351.84	30.321	-64.949	-475.61	360.21	-41.53	-580.93	1149.8	208.16	-600.18	1043.1	233.14	-556.92	647.56	146.78	-537.32	648.87	-160.33	-530.85	75.222	0.66965	-397.34	38.511	-37.097	-507.11	267.02	-111.27	-436.1	23.066	-115.19	-558.09	741.62	-181.61	-569.83	740.29	162.18	-477.9	767.31	245	-544.88	61.392	-79.911	-679.77	1318.5	70.752	-632.57	1422.5	-27.877	-449.13	1578	18.088	-542.42	554.77	134.75	-451.53	1576.6	-55.088	-702.82	978.51	47.755	-481.29	813.43	195.89	-670.32	1137.8	-19.418	-699.59	978.37	-67.878	-624.72	1557.1	43.322	-541.94	463.56	120.35	-639.69	1029.1	-241.93	-592.56	353.89	53.521	-664.91	791.36	-265.5	-613.92	1020.2	151.17	-672.02	305.54	51.795	-680.47	322.41	121	-786.06	51.176	77.877	-621.85	1565.2	-83.359	-614.77	782.17	-214.67	-749.99	256.03	50.429	-800.38	82.28	47.304	-658.85	1021.2	-173.66	-909.46	243.3	43.857	-851.84	95.724	111.8	-864.15	225.74	95.561	-831.55	218.57	21.121	-594.89	29.215	-26.853
311	1.555	-503.46	1343.3	-30.756	-428.17	1120.3	-18.9	-475.62	942.54	-140.88	-486.43	945.74	123.09	-556.62	1360	141.33	-517.04	910.23	237.08	-529.95	798.02	248.29	-562.3	1354.1	-200.72	-598.72	1145.2	-238.69	-601.76	902.43	-254.57	-617.05	739.87	-256.75	-482.72	665.78	125.32	-512.42	564.71	-140.11	-464.78	668.68	-130.79	-500.5	456.27	-124.74	-498.51	174.11	-36.066	-485.1	264.95	-42.415	-351.77	30.282	-65.032	-474.13	359.94	-41.593	-576.48	1150.6	207.82	-596.39	1043.9	232.71	-549.34	649.03	146.9	-533.93	649.01	-160.42	-530.78	75.233	0.65947	-397.35	38.535	-37.164	-505.99	266.87	-111.35	-436.12	23.027	-115.25	-554.07	741.89	-181.72	-563.27	741.6	162.2	-476.93	766.96	245.29	-544.87	61.427	-79.911	-674.42	1319.4	70.362	-627.09	1423.3	-28.139	-443.45	1578.6	17.934	-533.79	556.38	134.8	-445.86	1577.3	-55.231	-697.34	979.44	47.688	-479.76	813.09	196.13	-664.99	1138.7	-19.852	-694.41	979.13	-67.92	-619.05	1557.9	43.184	-531.9	465.5	120.28	-632.07	1029.6	-242.82	-581.42	355.47	53.293	-654.77	791.53	-266.14	-609.93	1021.1	150.7	-660.56	306.54	51.403	-669.27	323.37	120.55	-770.85	52.189	79.151	-616.2	1566.1	-83.498	-605.2	782.92	-214.63	-738.15	256.5	49.838	-785.63	82.857	48.149	-652.15	1021.6	-174.85	-897.74	241.86	42.683	-837.47	96.273	112.31	-852.14	225.41	94.709	-819.27	218.25	20.321	-594.88	29.279	-26.818
312	1.56	-498.08	1344.1	-30.991	-422.88	1121	-19.133	-471	943.16	-141.95	-481.36	946.72	123.43	-551.33	1360.7	141.13	-514.54	910.43	237.08	-528.59	798.36	248.6	-556.83	1354.9	-200.9	-591.92	1145.9	-239.17	-592.77	903.11	-254.72	-606.43	740.47	-256.76	-475.18	667.95	125.82	-509.61	564.68	-140.18	-461.21	668.29	-131.05	-498.45	456.14	-124.78	-497.92	173.96	-36.09	-484.05	264.73	-42.433	-351.7	30.244	-65.104	-472.66	359.68	-41.625	-572.03	1151.3	207.48	-592.63	1044.8	232.29	-541.8	650.5	147.01	-530.57	649.12	-160.47	-530.71	75.24	0.66201	-397.36	38.558	-37.228	-504.9	266.73	-111.4	-436.15	22.989	-115.31	-550.06	742.13	-181.79	-556.74	742.91	162.24	-475.95	766.65	245.59	-544.86	61.469	-79.895	-669.08	1320.2	69.985	-621.64	1424.1	-28.387	-437.78	1579.2	17.794	-525.2	558	134.83	-440.22	1577.9	-55.362	-691.87	980.36	47.642	-478.23	812.77	196.37	-659.67	1139.5	-20.287	-689.22	979.87	-67.933	-613.39	1558.7	43.072	-521.95	467.45	120.2	-624.47	1030	-243.72	-570.27	356.99	53.076	-644.56	791.72	-266.75	-605.97	1022	150.26	-649.04	307.42	51.031	-658.04	324.2	120.09	-755.42	53.021	80.452	-610.57	1567	-83.612	-595.55	783.7	-214.57	-726.2	256.75	49.264	-770.64	83.211	49.014	-645.48	1022.1	-176.08	-885.86	240.05	41.52	-822.9	96.552	112.82	-839.97	224.75	93.87	-806.82	217.62	19.538	-594.87	29.35	-26.776
313	1.565	-492.72	1344.8	-31.221	-417.62	1121.7	-19.375	-466.37	943.74	-143.02	-476.26	947.72	123.77	-546.05	1361.4	140.94	-512.05	910.62	237.07	-527.22	798.72	248.92	-551.41	1355.8	-201.08	-585.15	1146.6	-239.66	-583.74	903.82	-254.86	-595.71	741.13	-256.77	-467.67	670.12	126.32	-506.83	564.63	-140.2	-457.66	667.87	-131.3	-496.41	456	-124.78	-497.32	173.81	-36.096	-483	264.51	-42.429	-351.63	30.209	-65.166	-471.19	359.41	-41.625	-567.6	1152	207.13	-588.88	1045.6	231.88	-534.29	651.97	147.11	-527.23	649.21	-160.49	-530.62	75.244	0.67748	-397.37	38.58	-37.291	-503.83	266.59	-111.42	-436.17	22.953	-115.36	-546.08	742.34	-181.84	-550.25	744.2	162.29	-474.98	766.36	245.89	-544.84	61.518	-79.864	-663.76	1321	69.62	-616.22	1424.9	-28.622	-432.11	1579.7	17.666	-516.64	559.64	134.84	-434.58	1578.5	-55.482	-686.4	981.24	47.617	-476.71	812.47	196.62	-654.36	1140.3	-20.722	-684.03	980.58	-67.918	-607.73	1559.4	42.985	-512.09	469.41	120.1	-616.87	1030.5	-244.66	-559.13	358.47	52.873	-634.26	791.92	-267.34	-602.04	1022.9	149.85	-637.47	308.15	50.685	-646.79	324.92	119.65	-739.77	53.675	81.765	-604.95	1567.8	-83.703	-585.84	784.52	-214.51	-714.13	256.78	48.715	-755.44	83.355	49.894	-638.83	1022.6	-177.35	-873.83	237.88	40.389	-808.14	96.565	113.35	-827.66	223.77	93.056	-794.22	216.69	18.782	-594.85	29.428	-26.725
314	1.57	-487.39	1345.5	-31.447	-412.37	1122.4	-19.627	-461.75	944.29	-144.08	-471.14	948.72	124.09	-540.8	1362.1	140.76	-509.57	910.82	237.07	-525.84	799.08	249.23	-546.02	1356.7	-201.25	-578.4	1147.4	-240.15	-574.69	904.55	-254.98	-584.89	741.84	-256.76	-460.19	672.29	126.83	-504.06	564.57	-140.18	-454.12	667.43	-131.53	-494.38	455.86	-124.74	-496.72	173.66	-36.084	-481.93	264.29	-42.404	-351.55	30.175	-65.22	-469.72	359.14	-41.595	-563.17	1152.6	206.78	-585.15	1046.4	231.47	-526.79	653.43	147.21	-523.9	649.27	-160.46	-530.52	75.245	0.70563	-397.36	38.601	-37.351	-502.78	266.46	-111.41	-436.19	22.919	-115.42	-542.12	742.51	-181.85	-543.79	745.49	162.36	-473.99	766.11	246.21	-544.83	61.574	-79.818	-658.46	1321.7	69.269	-610.82	1425.7	-28.843	-426.45	1580.2	17.549	-508.11	561.29	134.84	-428.95	1579	-55.592	-680.94	982.1	47.612	-475.2	812.18	196.87	-649.06	1141.1	-21.156	-678.84	981.26	-67.877	-602.09	1560.2	42.919	-502.33	471.37	119.99	-609.3	1031	-245.62	-548	359.88	52.686	-623.9	792.14	-267.9	-598.16	1023.8	149.47	-625.84	308.76	50.37	-635.53	325.53	119.22	-723.91	54.158	83.077	-599.35	1568.7	-83.772	-576.06	785.38	-214.45	-701.96	256.62	48.199	-740.04	83.3	50.78	-632.21	1023	-178.66	-861.64	235.36	39.309	-793.18	96.32	113.88	-815.19	222.49	92.278	-781.46	215.48	18.066	-594.84	29.513	-26.667
315	1.575	-482.08	1346.1	-31.668	-407.15	1123.1	-19.891	-457.11	944.82	-145.12	-465.99	949.73	124.4	-535.56	1362.7	140.59	-507.1	911.03	237.07	-524.44	799.47	249.55	-540.67	1357.6	-201.42	-571.69	1148.1	-240.64	-565.62	905.31	-255.09	-573.98	742.61	-256.74	-452.74	674.45	127.34	-501.31	564.48	-140.11	-450.59	666.97	-131.75	-492.36	455.71	-124.67	-496.11	173.5	-36.053	-480.85	264.07	-42.356	-351.46	30.143	-65.268	-468.23	358.87	-41.533	-558.75	1153.2	206.43	-581.44	1047.2	231.07	-519.3	654.87	147.3	-520.59	649.31	-160.39	-530.41	75.243	0.74582	-397.35	38.622	-37.408	-501.74	266.33	-111.37	-436.2	22.886	-115.47	-538.18	742.66	-181.82	-537.36	746.75	162.44	-472.99	765.87	246.53	-544.81	61.636	-79.758	-653.17	1322.5	68.93	-605.44	1426.4	-29.051	-420.79	1580.7	17.442	-499.61	562.94	134.81	-423.33	1579.6	-55.692	-675.49	982.91	47.625	-473.68	811.91	197.13	-643.77	1141.8	-21.585	-673.65	981.91	-67.814	-596.45	1560.9	42.874	-492.67	473.32	119.85	-601.74	1031.5	-246.6	-536.89	361.23	52.518	-613.47	792.38	-268.44	-594.33	1024.6	149.09	-614.15	309.23	50.088	-624.25	326.02	118.81	-707.87	54.478	84.376	-593.76	1569.5	-83.821	-566.22	786.27	-214.37	-689.68	256.24	47.721	-724.45	83.06	51.668	-625.61	1023.4	-180	-849.29	232.5	38.294	-778.04	95.823	114.43	-802.57	220.91	91.546	-768.57	214	17.397	-594.82	29.605	-26.603
